<svg xmlns="http://www.w3.org/2000/svg" viewBox="0 0 160 100"><rect width="160" height="100" fill="#1a1a2e"/><rect x="10" y="20" width="140" height="60" fill="#fdf6e3"/><path d="M14 34h132" stroke="#5d4037"/><path d="M14 40h132" stroke="#5d4037"/><path d="M14 46h132" stroke="#5d4037"/><path d="M14 52h132" stroke="#5d4037"/><path d="M14 58h132" stroke="#5d4037"/><text x="22" y="56" font-family="Georgia,serif" font-size="30" fill="#5d4037">𝄞</text><g fill="#3e2723"><ellipse cx="60" cy="52" rx="4" ry="3"/><path d="M64 52v-16" stroke="#3e2723" stroke-width="1.5"/><ellipse cx="76" cy="46" rx="4" ry="3"/><path d="M80 46v-16" stroke="#3e2723" stroke-width="1.5"/><ellipse cx="92" cy="40" rx="4" ry="3"/><path d="M96 40v-16" stroke="#3e2723" stroke-width="1.5"/><ellipse cx="108" cy="46" rx="4" ry="3"/><path d="M112 46v-16" stroke="#3e2723" stroke-width="1.5"/><ellipse cx="124" cy="52" rx="4" ry="3"/><path d="M128 52v-16" stroke="#3e2723" stroke-width="1.5"/></g><text x="80" y="94" font-family="Georgia,serif" font-style="italic" font-size="9" fill="#ffd54f" text-anchor="middle">Freude, schöner Götterfunken</text></svg>
