<svg xmlns="http://www.w3.org/2000/svg" viewBox="0 0 160 100"><rect width="160" height="100" fill="#dfe6ee"/><path d="M0 100V40h160v60z" fill="#b8b2a6"/><path d="M14 40h132l-6-8H20z" fill="#9e978a"/><rect x="24" y="44" width="10" height="56" fill="#cfc9bd"/><rect x="44" y="44" width="10" height="56" fill="#cfc9bd"/><rect x="64" y="44" width="10" height="56" fill="#cfc9bd"/><rect x="86" y="44" width="10" height="56" fill="#cfc9bd"/><rect x="106" y="44" width="10" height="56" fill="#cfc9bd"/><rect x="126" y="44" width="10" height="56" fill="#cfc9bd"/><path d="M48 32q32-30 64 0z" fill="#bfe0f5" stroke="#7a8a9a" stroke-width="2"/><path d="M60 32q20-24 40 0M80 8v24" stroke="#7a8a9a" stroke-width="1.5" fill="none"/><path d="M76 8V0" stroke="#555"/><rect x="77" y="0" width="12" height="3" fill="#000"/><rect x="77" y="3" width="12" height="3" fill="#d00"/><rect x="77" y="6" width="12" height="3" fill="#ffce00"/></svg>
